<svg xmlns="http://www.w3.org/2000/svg" width="241.225" height="27.25" viewBox="0 0 241.225 27.25">
  <g id="R_C" transform="translate(-20.22 -127.9)">
    <g id="Grupo_186" data-name="Grupo 186">
      <path id="Trazado_691" data-name="Trazado 691" d="M25.8,128.54H36.5c5.22,0,6.58,2.94,5.72,6.98-.74,3.49-2.59,5.77-5.81,6.25l-.02.07c3.25.29,3.79,2.39,3.05,5.88l-.48,2.24c-.29,1.36-.66,3.12-.44,3.64a1.351,1.351,0,0,0,.6.81l-.08.37H31.76c-.36-1.4.17-3.9.4-5l.38-1.76c.63-2.98.21-3.75-1.45-3.75h-1.8l-2.23,10.51H20.22Zm4.47,11.11h1.36a3.5,3.5,0,0,0,3.53-3.12c.45-2.13-.2-3.05-2.26-3.05H31.58Z" fill="#ea0029"/>
      <path id="Trazado_692" data-name="Trazado 692" d="M46.89,128.54H62.44l-1.19,5.59H52.54l-.95,4.48h8.16l-1.14,5.37H50.45l-1.11,5.22h9.04l-1.19,5.59H41.31Z" fill="#ea0029"/>
      <path id="Trazado_693" data-name="Trazado 693" d="M65.27,128.54h9.92c7.9,0,6.98,6.25,5.52,13.12s-3.19,13.12-11.1,13.12H59.69Zm2.31,21.32h1.36c2.65,0,3.21-1.1,4.72-8.2s1.41-8.2-1.23-8.2H71.07Z" fill="#ea0029"/>
    </g>
    <g id="Grupo_187" data-name="Grupo 187">
      <path id="Trazado_694" data-name="Trazado 694" d="M98.61,136.38c.62-2.97.26-3.85-1.06-3.85-2.09,0-2.72,1.91-4.22,8.99s-1.69,8.99.4,8.99c1.69,0,2.35-1.47,3.41-6.42h6.61l-.4,1.95c-1.58,7.34-6.24,9.1-10.61,9.1-7.67,0-8.55-3.85-6.46-13.62,2.13-10.02,5.18-13.62,12.26-13.62,6.17,0,7.78,3.23,6.72,8.3l-.37,1.65H98.28Z" fill="#fff"/>
      <path id="Trazado_695" data-name="Trazado 695" d="M118.25,127.91c6.97,0,8.55,3.82,6.46,13.62s-5.29,13.62-12.26,13.62-8.55-3.82-6.46-13.62S111.27,127.91,118.25,127.91Zm-4.81,22.61c2.09,0,2.72-1.91,4.22-8.99s1.69-8.99-.4-8.99-2.72,1.91-4.22,8.99S111.35,150.52,113.44,150.52Z" fill="#fff"/>
      <path id="Trazado_696" data-name="Trazado 696" d="M129.7,128.42h9.76l-.55,15.53h.07l6.06-15.53h9.76l-5.58,26.21h-6.39l4.15-19.53h-.07l-7.78,19.53h-4.92l.51-19.53h-.07l-4.15,19.53h-6.39Z" fill="#fff"/>
      <path id="Trazado_697" data-name="Trazado 697" d="M157.52,128.42h10.24c5.21,0,6.83,3.49,5.84,8.08-1.14,5.36-4.77,8.15-10.31,8.15H160.9l-2.13,9.98h-6.83Zm4.41,11.31h1.28c1.73,0,2.86-.99,3.34-3.19.44-2.17-.26-3.19-1.98-3.19h-1.28Z" fill="#fff"/>
      <path id="Trazado_698" data-name="Trazado 698" d="M180.42,128.42h8.59l.81,26.21h-7.27l.29-4.59h-5.43l-1.69,4.59h-7.27Zm3.2,5.36h-.07l-4.26,11.12h3.82Z" fill="#fff"/>
      <path id="Trazado_699" data-name="Trazado 699" d="M196.54,128.42h7.63l.95,16.15h.07l3.45-16.15h6.39l-5.58,26.21h-7.49l-1.1-16.19h-.07l-3.45,16.19h-6.39Z" fill="#fff"/>
      <path id="Trazado_700" data-name="Trazado 700" d="M218.01,128.42h6.83l-5.58,26.21h-6.83Z" fill="#fff"/>
      <path id="Trazado_701" data-name="Trazado 701" d="M227.81,128.42h15.53L242.13,134h-8.7l-.92,4.48h8.15l-1.17,5.36h-8.15l-1.1,5.21h9.03l-1.17,5.58H222.24Z" fill="#fff"/>
      <path id="Trazado_702" data-name="Trazado 702" d="M254.75,135.98l.15-.62c.33-1.54-.04-2.83-1.36-2.83a2.693,2.693,0,0,0-2.61,2.31c-1.1,5.18,10.57,2.64,8.55,12.22-1.21,5.58-4.99,8.08-11.01,8.08-5.65,0-8.41-1.95-7.23-7.38l.18-.92h6.61l-.15.62c-.48,2.24.29,3.05,1.61,3.05a2.9,2.9,0,0,0,2.72-2.53c1.1-5.18-10.13-2.61-8.19-11.89,1.14-5.29,4.59-8.19,10.35-8.19,5.95,0,7.93,2.46,6.75,8.07h-6.37Z" fill="#fff"/>
    </g>
  </g>
</svg>
